# xmcd
#
# Track frame offsets:
#	150
#	12701
#	26699
#	37621
#	49572
#	62592
#	74390
#	85319
#	97449
#	109966
#	121631
#	133842
#	147093
#	159107
#	173009
#	185481
#	196044
#	205571
#	217761
#	228348
#	241371
#	253594
#	266759
#	278296
#	291849
#
# Disc length: 4023
#
# Revision: 2
# Processed by: cddbd v1.5.1PL0 Copyright (c) Steve Scherf et al.
# Submitted via: audiograbber 1.81.03
# Normalized: r1:DSETVAR1
#
DISCID=580fb519
DTITLE=Various Artist - 100 plus grands succes Country Music 4-4
DYEAR=2002
DGENRE=Country
TTITLE0=Al Dexter - Pistol packin' mama(1944)
TTITLE1=Ernest Tubb - Soldier's last letter(1944)
TTITLE2=Bill Boyd and Cowboys Ramblers - New steel guitar rag(1944)
TTITLE3=Bill Monroe and Bluegrass Boys - Footprints in the snow(1946)
TTITLE4=Tex Williams - Smoke, smoke, smoke that cigarette(1947)
TTITLE5=Johnny Bond - The daughter of Jole Blon(1947)
TTITLE6=Hank Thompson - Humpty dumpty heart(1948)
TTITLE7=Hawkhaw Hawkins - Dog house boogie(1948)
TTITLE8=Jimmy Wakely - One has my name(the other has my heart)(1948)
TTITLE9=Red Foley and Cumberland Valley Boys - Tennessee saturday night(1948)
TTITLE10=Jimmy Dickens, Little - Take an old 'tater (and wait)(1949)
TTITLE11=Ernest Tubb - Mean mama blues(1949)
TTITLE12=Floyd Tillman - Slipping around(1949)
TTITLE13=Tommy Duncan - Gamblin' polka dot blues(1949)
TTITLE14=Delmore Brothers - Blues stay away from me(1949)
TTITLE15=Hank Thompson - Whoa sailor(1949)
TTITLE16=Tennessee Ernie Ford - Anticipation blues(1949)
TTITLE17=Hank Williams and Drifting Cow-Boys - Lovesick blues(1949)
TTITLE18=Red Foley and Cumberland Valley Boys - Sugar foot rag(1950)
TTITLE19=Delmore Brothers - Pan American boogie(1950)
TTITLE20=Hank Williams and Drifting Cow-Boys - I just don't like this king of living(1950)
TTITLE21=Lefty Frizzell - If you've got the money I've got the time(1950)
TTITLE22=Tennessee Ernie Ford - The shot-gun boogie(1950)
TTITLE23=Lefty Frizzell - Always Late(1951)
TTITLE24=Carlisles - Too old to cut the mustard(1951)
EXTD=
EXTT0=
EXTT1=
EXTT2=
EXTT3=
EXTT4=
EXTT5=
EXTT6=
EXTT7=
EXTT8=
EXTT9=
EXTT10=
EXTT11=
EXTT12=
EXTT13=
EXTT14=
EXTT15=
EXTT16=
EXTT17=
EXTT18=
EXTT19=
EXTT20=
EXTT21=
EXTT22=
EXTT23=
EXTT24=
PLAYORDER=
